<svg width="32" height="32" viewBox="0 0 32 32" fill="none" xmlns="http://www.w3.org/2000/svg">
<g filter="url(#filter0_d_9_10363)">
<path d="M3.95264 5.6947C4.58991 5.26821 7.30584 8.00977 7.62158 8.33337C14.1899 4.59534 18.6973 10.5293 19.9595 16.223C20.4027 17.7749 21.9989 19.0469 23.4526 17.7562C22.1457 16.7137 20.9953 13.8343 22.7993 12.6302C23.8317 12.3961 24.8321 15.0371 24.9351 15.9222C25.4054 15.4013 29.5884 13.7462 29.4839 14.9672C28.9648 17.3788 27.4731 18.6184 25.0103 18.6859C23.4077 22.3108 21.6251 23.251 16.731 24.6498C15.9682 24.8678 15.796 23.8459 15.8892 23.5609C15.3413 24.4423 17.3628 25.7796 16.7681 26.1488C14.7514 26.6936 13.1185 26.1325 11.8687 24.4652C11.8626 24.6571 11.904 24.8416 11.9937 25.0179C7.9779 24.6009 5.31101 22.5052 3.99365 18.7299C3.98877 18.7159 3.98483 18.7029 3.97998 18.6888C3.96266 18.6387 3.94507 18.5863 3.92822 18.5355C1.75869 17.7238 2.41258 15.5113 3.72705 14.4642C3.72708 12.9377 4.3405 11.317 5.41064 10.1674C4.82908 8.78283 3.56301 5.93409 3.95264 5.6947ZM7.78564 13.0355C6.66189 13.0358 6.57191 14.1625 6.90674 15.1459C7.27573 15.9042 7.8369 16.0971 8.59033 15.724C9.10038 15.2974 9.29319 14.7525 9.16846 14.0902C8.97435 13.3848 8.90971 13.0355 7.78564 13.0355Z" fill="black"/>
</g>
<defs>
<filter id="filter0_d_9_10363" x="1.51562" y="5.64978" width="28.9702" height="22.7003" filterUnits="userSpaceOnUse" color-interpolation-filters="sRGB">
<feFlood flood-opacity="0" result="BackgroundImageFix"/>
<feColorMatrix in="SourceAlpha" type="matrix" values="0 0 0 0 0 0 0 0 0 0 0 0 0 0 0 0 0 0 127 0" result="hardAlpha"/>
<feOffset dy="1"/>
<feGaussianBlur stdDeviation="0.5"/>
<feComposite in2="hardAlpha" operator="out"/>
<feColorMatrix type="matrix" values="0 0 0 0 1 0 0 0 0 1 0 0 0 0 1 0 0 0 0.25 0"/>
<feBlend mode="normal" in2="BackgroundImageFix" result="effect1_dropShadow_9_10363"/>
<feBlend mode="normal" in="SourceGraphic" in2="effect1_dropShadow_9_10363" result="shape"/>
</filter>
</defs>
</svg>
